<?xml version="1.0" standalone="no"?>
<!DOCTYPE svg PUBLIC "-//W3C//DTD SVG 20010904//EN"
 "http://www.w3.org/TR/2001/REC-SVG-20010904/DTD/svg10.dtd">
<svg version="1.0" xmlns="http://www.w3.org/2000/svg"
 width="100.000000pt" height="50.000000pt" viewBox="0 0 100.000000 50.000000"
 preserveAspectRatio="xMidYMid meet">
<metadata>
Created by potrace 1.10, written by Peter Selinger 2001-2011
</metadata>
<g transform="translate(0.000000,50.000000) scale(0.100000,-0.100000)"
fill="#000000" stroke="none">
<path d="M383 363 c-26 -73 -67 -172 -79 -190 -14 -23 -14 -23 37 -23 42 0 49
2 40 14 -22 26 -2 46 45 46 24 0 47 0 52 0 13 1 14 -43 0 -51 -8 -5 9 -9 45
-9 l58 0 -19 25 c-11 14 -35 65 -53 115 l-33 90 -44 0 c-32 0 -44 -5 -49 -17z
m70 -70 l17 -43 -36 0 c-38 0 -38 0 -12 69 10 28 10 28 31 -26z"/>
<path d="M516 323 c13 -32 24 -65 25 -73 1 -8 5 2 8 23 l6 38 55 -77 c55 -77
55 -78 104 -80 37 -3 46 0 38 8 -16 16 -16 190 0 206 9 9 0 12 -42 12 -30 0
-50 -4 -44 -8 11 -7 25 -152 14 -152 -3 1 -29 37 -59 80 -51 76 -56 80 -91 80
l-38 0 24 -57z"/>
</g>
</svg>
